<svg width="36" height="36" viewBox="0 0 36 36" fill="none" xmlns="http://www.w3.org/2000/svg">
<path d="M3.375 18.5C3.375 10.4211 9.92109 3.875 18 3.875C22.4367 3.875 26.4094 5.85078 29.0953 8.97266C29.7 9.68281 30.7688 9.76016 31.4719 9.15547C32.175 8.55078 32.2594 7.48203 31.6547 6.77891C28.357 2.93281 23.4633 0.5 18 0.5C8.05781 0.5 0 8.55781 0 18.5V21.3125C0 22.2477 0.752344 23 1.6875 23C2.62266 23 3.375 22.2477 3.375 21.3125V18.5ZM35.6133 14.7805C35.4234 13.8664 34.5234 13.2828 33.6164 13.4797C32.7094 13.6766 32.1188 14.5695 32.3156 15.4766C32.5195 16.4539 32.632 17.4664 32.632 18.507V21.3195C32.632 22.2547 33.3844 23.007 34.3195 23.007C35.2547 23.007 36.007 22.2547 36.007 21.3195V18.5C36.007 17.2273 35.8734 15.9828 35.6203 14.7805H35.6133ZM18 6.125C16.6641 6.125 15.3703 6.33594 14.168 6.72969C13.0992 7.08125 12.8531 8.39609 13.5844 9.25391C14.0836 9.8375 14.9062 10.0133 15.6516 9.80937C16.3969 9.60547 17.1844 9.5 18 9.5C22.9711 9.5 27 13.5289 27 18.5V20.2508C27 22.0227 26.8945 23.7875 26.6906 25.5453C26.5711 26.5719 27.3516 27.5 28.3922 27.5C29.2219 27.5 29.932 26.8953 30.0305 26.0727C30.2625 24.1461 30.382 22.2055 30.382 20.2578V18.5C30.382 11.6656 24.8414 6.125 18.007 6.125H18ZM10.5961 10.9555C9.95625 10.2102 8.81719 10.1539 8.2125 10.9273C6.58828 13.0156 5.625 15.6453 5.625 18.5V20.2508C5.625 21.9523 5.44219 23.6539 5.07656 25.3062C4.8375 26.4031 5.63203 27.5 6.75703 27.5C7.49531 27.5 8.15625 27.0078 8.31797 26.2836C8.76797 24.3078 9 22.2898 9 20.2508V18.5C9 16.5875 9.59766 14.8156 10.6102 13.3602C11.1164 12.6289 11.1727 11.6305 10.5961 10.9555ZM18 11.75C14.2734 11.75 11.25 14.7734 11.25 18.5V20.2508C11.25 22.775 10.9266 25.2781 10.2797 27.7109C10.0125 28.7164 10.7508 29.75 11.7914 29.75C12.4594 29.75 13.05 29.3141 13.2258 28.6672C13.9641 25.925 14.3438 23.0984 14.3438 20.2508V18.5C14.3438 16.482 15.982 14.8438 18 14.8438C20.018 14.8438 21.6562 16.482 21.6562 18.5V20.2508C21.6562 22.8031 21.4102 25.3414 20.925 27.8375C20.7352 28.8148 21.4664 29.75 22.4578 29.75C23.175 29.75 23.7937 29.2578 23.9344 28.5547C24.4758 25.8266 24.75 23.0492 24.75 20.2508V18.5C24.75 14.7734 21.7266 11.75 18 11.75ZM19.6875 18.5C19.6875 17.5648 18.9352 16.8125 18 16.8125C17.0648 16.8125 16.3125 17.5648 16.3125 18.5V20.2508C16.3125 24.4625 15.5391 28.6391 14.0273 32.5695L13.6125 33.6453C13.275 34.5172 13.7109 35.4945 14.5828 35.825C15.4547 36.1555 16.432 35.7266 16.7625 34.8547L17.1773 33.7789C18.8367 29.4617 19.6875 24.8773 19.6875 20.2508V18.5Z" fill="#A0AAFF"/>
</svg>
