<svg width="10" height="10" viewBox="0 0 10 10" fill="none" xmlns="http://www.w3.org/2000/svg">
<path d="M9.70627 1.70664C10.0969 1.31602 10.0969 0.681641 9.70627 0.291016C9.31565 -0.0996094 8.68127 -0.0996094 8.29065 0.291016L5.00002 3.58477L1.70627 0.294141C1.31565 -0.0964844 0.681274 -0.0964844 0.290649 0.294141C-0.0999756 0.684766 -0.0999756 1.31914 0.290649 1.70977L3.5844 5.00039L0.293774 8.29414C-0.0968505 8.68476 -0.0968505 9.31914 0.293774 9.70977C0.684399 10.1004 1.31877 10.1004 1.7094 9.70977L5.00002 6.41602L8.29377 9.70664C8.6844 10.0973 9.31878 10.0973 9.7094 9.70664C10.1 9.31602 10.1 8.68164 9.7094 8.29102L6.41565 5.00039L9.70627 1.70664Z" fill="#FE6F6F"/>
</svg>
