<svg width="33" height="32" viewBox="0 0 33 32" fill="none" xmlns="http://www.w3.org/2000/svg">
<path d="M11.8594 3.6H21.1406C21.4242 3.6 21.6562 3.8325 21.6562 4.11667V6.7H11.3438V4.11667C11.3438 3.8325 11.5758 3.6 11.8594 3.6ZM8.25 4.11667V6.7H4.125C1.8498 6.7 0 8.55354 0 10.8333V17.0333H12.375H20.625H33V10.8333C33 8.55354 31.1502 6.7 28.875 6.7H24.75V4.11667C24.75 2.12104 23.1322 0.5 21.1406 0.5H11.8594C9.86777 0.5 8.25 2.12104 8.25 4.11667ZM33 19.1H20.625V21.1667C20.625 22.3098 19.7033 23.2333 18.5625 23.2333H14.4375C13.2967 23.2333 12.375 22.3098 12.375 21.1667V19.1H0V27.3667C0 29.6465 1.8498 31.5 4.125 31.5H28.875C31.1502 31.5 33 29.6465 33 27.3667V19.1Z" fill="white"/>
</svg>
