<svg width="45" height="32" viewBox="0 0 45 32" fill="none" xmlns="http://www.w3.org/2000/svg">
<path d="M5.625 2.8125C5.625 1.25859 4.36641 0 2.8125 0C1.25859 0 0 1.25859 0 2.8125V6.75V11.25V18.3867C0 20.1797 0.710156 21.8953 1.97578 23.1609L9 30.1852C9.84375 31.0289 10.9898 31.5 12.1852 31.5H16.875C18.7383 31.5 20.25 29.9883 20.25 28.125V22.5773C20.25 20.4891 19.4203 18.4852 17.9438 17.0086L16.1648 15.2297L15.0961 14.1609L12.8461 11.9109C11.9672 11.032 10.5398 11.032 9.66094 11.9109C8.78203 12.7898 8.78203 14.2172 9.66094 15.0961L11.9109 17.3461L12.9797 18.4148C13.7531 19.1883 13.6266 20.468 12.7195 21.0727C12.0375 21.5297 11.1234 21.4383 10.5398 20.8547L6.93984 17.2617C6.09609 16.418 5.625 15.2719 5.625 14.0766V11.25V5.625V2.8125ZM39.375 2.8125V5.625V11.25V14.0766C39.375 15.2719 38.9039 16.418 38.0602 17.2617L34.4672 20.8547C33.8836 21.4383 32.9695 21.5297 32.2875 21.0727C31.3805 20.468 31.2539 19.1812 32.0273 18.4148L33.0961 17.3461L35.3461 15.0961C36.225 14.2172 36.225 12.7898 35.3461 11.9109C34.4672 11.032 33.0398 11.032 32.1609 11.9109L29.9109 14.1609L28.8422 15.2297L27.0633 17.0086C25.5867 18.4852 24.757 20.4891 24.757 22.5773V28.125C24.757 29.9883 26.2688 31.5 28.132 31.5H32.8219C34.0172 31.5 35.1633 31.0289 36.007 30.1852L43.0312 23.1609C44.2969 21.8953 45.007 20.1797 45.007 18.3867V11.25V6.75V2.8125C45.007 1.25859 43.7484 0 42.1945 0C40.6406 0 39.382 1.25859 39.382 2.8125H39.375Z" fill="#A0AAFF"/>
</svg>
