<svg width="39" height="37" viewBox="0 0 39 37" fill="none" xmlns="http://www.w3.org/2000/svg">
<path d="M16.5023 3.50234L13.8516 4.49375C13.6406 4.57109 13.5 4.775 13.5 5C13.5 5.225 13.6406 5.42891 13.8516 5.50625L16.5023 6.49766L17.4937 9.14844C17.5711 9.35938 17.775 9.5 18 9.5C18.225 9.5 18.4289 9.35938 18.5063 9.14844L19.4977 6.49766L22.1484 5.50625C22.3594 5.42891 22.5 5.225 22.5 5C22.5 4.775 22.3594 4.57109 22.1484 4.49375L19.4977 3.50234L18.5063 0.851562C18.4289 0.640625 18.225 0.5 18 0.5C17.775 0.5 17.5711 0.640625 17.4937 0.851562L16.5023 3.50234ZM3.24141 28.3016C1.92656 29.6164 1.92656 31.7539 3.24141 33.0758L5.67422 35.5086C6.98906 36.8234 9.12656 36.8234 10.4484 35.5086L37.2586 8.69141C38.5734 7.37656 38.5734 5.23906 37.2586 3.91719L34.8258 1.49141C33.5109 0.176562 31.3734 0.176562 30.0516 1.49141L3.24141 28.3016ZM34.0734 6.30781L26.6906 13.6906L25.0523 12.0523L32.4352 4.66953L34.0734 6.30781ZM0.527344 8.74062C0.210938 8.86016 0 9.1625 0 9.5C0 9.8375 0.210938 10.1398 0.527344 10.2594L4.5 11.75L5.99062 15.7227C6.11016 16.0391 6.4125 16.25 6.75 16.25C7.0875 16.25 7.38984 16.0391 7.50938 15.7227L9 11.75L12.9727 10.2594C13.2891 10.1398 13.5 9.8375 13.5 9.5C13.5 9.1625 13.2891 8.86016 12.9727 8.74062L9 7.25L7.50938 3.27734C7.38984 2.96094 7.0875 2.75 6.75 2.75C6.4125 2.75 6.11016 2.96094 5.99062 3.27734L4.5 7.25L0.527344 8.74062ZM25.2773 26.7406C24.9609 26.8602 24.75 27.1625 24.75 27.5C24.75 27.8375 24.9609 28.1398 25.2773 28.2594L29.25 29.75L30.7406 33.7227C30.8602 34.0391 31.1625 34.25 31.5 34.25C31.8375 34.25 32.1398 34.0391 32.2594 33.7227L33.75 29.75L37.7227 28.2594C38.0391 28.1398 38.25 27.8375 38.25 27.5C38.25 27.1625 38.0391 26.8602 37.7227 26.7406L33.75 25.25L32.2594 21.2773C32.1398 20.9609 31.8375 20.75 31.5 20.75C31.1625 20.75 30.8602 20.9609 30.7406 21.2773L29.25 25.25L25.2773 26.7406Z" fill="#A0AAFF"/>
</svg>
