<svg width="20" height="20" viewBox="0 0 20 20" fill="none" xmlns="http://www.w3.org/2000/svg">
<path d="M9.10243 0.203125C9.67153 -0.0664062 10.3285 -0.0664062 10.8976 0.203125L19.2469 4.14844C19.5715 4.30078 19.7778 4.63281 19.7778 5C19.7778 5.36719 19.5715 5.69922 19.2469 5.85156L10.8976 9.79688C10.3285 10.0664 9.67153 10.0664 9.10243 9.79688L0.753124 5.85156C0.428471 5.69531 0.222221 5.36328 0.222221 5C0.222221 4.63672 0.428471 4.30078 0.753124 4.14844L9.10243 0.203125ZM17.2149 8.1875L19.2469 9.14844C19.5715 9.30078 19.7778 9.63281 19.7778 10C19.7778 10.3672 19.5715 10.6992 19.2469 10.8516L10.8976 14.7969C10.3285 15.0664 9.67153 15.0664 9.10243 14.7969L0.753124 10.8516C0.428471 10.6953 0.222221 10.3633 0.222221 10C0.222221 9.63672 0.428471 9.30078 0.753124 9.14844L2.78507 8.1875L8.59062 10.9297C9.48437 11.3516 10.5156 11.3516 11.4094 10.9297L17.2149 8.1875ZM11.4094 15.9297L17.2149 13.1875L19.2469 14.1484C19.5715 14.3008 19.7778 14.6328 19.7778 15C19.7778 15.3672 19.5715 15.6992 19.2469 15.8516L10.8976 19.7969C10.3285 20.0664 9.67153 20.0664 9.10243 19.7969L0.753124 15.8516C0.428471 15.6953 0.222221 15.3633 0.222221 15C0.222221 14.6367 0.428471 14.3008 0.753124 14.1484L2.78507 13.1875L8.59062 15.9297C9.48437 16.3516 10.5156 16.3516 11.4094 15.9297Z" fill="#A0AAFF"/>
</svg>
