<svg width="51" height="32" viewBox="0 0 51 32" fill="none" xmlns="http://www.w3.org/2000/svg">
<path d="M25.7709 2.21162L18.0572 8.5414C16.7742 9.59098 16.5272 11.4802 17.4994 12.8285C18.5273 14.2656 20.5275 14.5482 21.9061 13.4583L29.8191 7.22539C30.3769 6.78941 31.1737 6.88629 31.612 7.45145C32.0503 8.01661 31.9467 8.82398 31.3889 9.26803L29.7234 10.576L40.8 20.9103V5.66716H40.7442L40.4334 5.46532L34.6481 1.71105C33.4289 0.919832 32.0025 0.5 30.5522 0.5C28.815 0.5 27.1256 1.10553 25.7709 2.21162ZM27.5878 12.2553L23.468 15.5009C20.9578 17.487 17.3161 16.9703 15.4355 14.3545C13.6664 11.892 14.1127 8.45259 16.4475 6.53912L23.0775 1.10553C22.1531 0.709916 21.157 0.508074 20.145 0.508074C18.6469 0.5 17.1886 0.952127 15.9375 1.79179L10.2 5.66716V23.7522H12.4472L19.7306 30.4857C21.2925 31.9309 23.707 31.8179 25.1334 30.2354C25.5717 29.7429 25.8666 29.1697 26.018 28.5722L27.3727 29.8317C28.9266 31.2769 31.3491 31.172 32.7755 29.5976C33.1341 29.202 33.397 28.7418 33.5644 28.2654C35.1103 29.315 37.2141 29.097 38.513 27.6599C39.9394 26.0855 39.8358 23.6311 38.2819 22.1859L27.5878 12.2553ZM1.275 5.66716C0.57375 5.66716 0 6.24847 0 6.95895V23.7522C0 25.1813 1.13953 26.3358 2.55 26.3358H5.1C6.51047 26.3358 7.65 25.1813 7.65 23.7522V5.66716H1.275ZM3.825 21.1687C4.16315 21.1687 4.48745 21.3048 4.72656 21.547C4.96567 21.7893 5.1 22.1178 5.1 22.4604C5.1 22.803 4.96567 23.1316 4.72656 23.3739C4.48745 23.6161 4.16315 23.7522 3.825 23.7522C3.48685 23.7522 3.16255 23.6161 2.92344 23.3739C2.68433 23.1316 2.55 22.803 2.55 22.4604C2.55 22.1178 2.68433 21.7893 2.92344 21.547C3.16255 21.3048 3.48685 21.1687 3.825 21.1687ZM43.35 5.66716V23.7522C43.35 25.1813 44.4895 26.3358 45.9 26.3358H48.45C49.8605 26.3358 51 25.1813 51 23.7522V6.95895C51 6.24847 50.4263 5.66716 49.725 5.66716H43.35ZM45.9 22.4604C45.9 22.1178 46.0343 21.7893 46.2734 21.547C46.5125 21.3048 46.8368 21.1687 47.175 21.1687C47.5131 21.1687 47.8375 21.3048 48.0766 21.547C48.3157 21.7893 48.45 22.1178 48.45 22.4604C48.45 22.803 48.3157 23.1316 48.0766 23.3739C47.8375 23.6161 47.5131 23.7522 47.175 23.7522C46.8368 23.7522 46.5125 23.6161 46.2734 23.3739C46.0343 23.1316 45.9 22.803 45.9 22.4604Z" fill="#A0AAFF"/>
</svg>
