<svg width="20" height="18" viewBox="0 0 20 18" fill="none" xmlns="http://www.w3.org/2000/svg">
<path d="M1.85938 10.7343L8.91797 17.3242C9.21094 17.5976 9.59766 17.75 10 17.75C10.4023 17.75 10.7891 17.5976 11.082 17.3242L18.1406 10.7343C19.3281 9.62887 20 8.07809 20 6.457V6.23043C20 3.49997 18.0273 1.17184 15.3359 0.722621C13.5547 0.425746 11.7422 1.00778 10.4688 2.28122L10 2.74997L9.53125 2.28122C8.25781 1.00778 6.44531 0.425746 4.66406 0.722621C1.97266 1.17184 0 3.49997 0 6.23043V6.457C0 8.07809 0.671875 9.62887 1.85938 10.7343Z" fill="#A0AAFF"/>
</svg>
