<svg width="42" height="34" viewBox="0 0 42 34" fill="none" xmlns="http://www.w3.org/2000/svg">
<path d="M9.324 0C10.6978 0 12.0154 0.559708 12.9868 1.556C13.9583 2.55228 14.504 3.90354 14.504 5.3125C14.504 6.72146 13.9583 8.07272 12.9868 9.06901C12.0154 10.0653 10.6978 10.625 9.324 10.625C7.95018 10.625 6.63263 10.0653 5.66119 9.06901C4.68975 8.07272 4.144 6.72146 4.144 5.3125C4.144 3.90354 4.68975 2.55228 5.66119 1.556C6.63263 0.559708 7.95018 0 9.324 0ZM33.152 0C34.5258 0 35.8434 0.559708 36.8148 1.556C37.7863 2.55228 38.332 3.90354 38.332 5.3125C38.332 6.72146 37.7863 8.07272 36.8148 9.06901C35.8434 10.0653 34.5258 10.625 33.152 10.625C31.7782 10.625 30.4606 10.0653 29.4892 9.06901C28.5177 8.07272 27.972 6.72146 27.972 5.3125C27.972 3.90354 28.5177 2.55228 29.4892 1.556C30.4606 0.559708 31.7782 0 33.152 0ZM0 19.8355C0 15.9242 3.09505 12.75 6.90882 12.75H9.67365C10.7032 12.75 11.6809 12.9824 12.5615 13.3941C12.4773 13.8723 12.4385 14.3703 12.4385 14.875C12.4385 17.4117 13.5263 19.6895 15.2421 21.25C15.2292 21.25 15.2163 21.25 15.1968 21.25H1.37917C0.6216 21.25 0 20.6125 0 19.8355ZM26.2432 21.25C26.2302 21.25 26.2173 21.25 26.1979 21.25C27.9202 19.6895 29.0015 17.4117 29.0015 14.875C29.0015 14.3703 28.9562 13.8789 28.8785 13.3941C29.7591 12.9758 30.7368 12.75 31.7664 12.75H34.5312C38.345 12.75 41.44 15.9242 41.44 19.8355C41.44 20.6191 40.8184 21.25 40.0608 21.25H26.2432ZM14.504 14.875C14.504 13.1842 15.1589 11.5627 16.3246 10.3672C17.4904 9.17165 19.0714 8.5 20.72 8.5C22.3686 8.5 23.9496 9.17165 25.1154 10.3672C26.2811 11.5627 26.936 13.1842 26.936 14.875C26.936 16.5658 26.2811 18.1873 25.1154 19.3828C23.9496 20.5784 22.3686 21.25 20.72 21.25C19.0714 21.25 17.4904 20.5784 16.3246 19.3828C15.1589 18.1873 14.504 16.5658 14.504 14.875ZM8.288 32.227C8.288 27.3395 12.1536 23.375 16.9192 23.375H24.5208C29.2864 23.375 33.152 27.3395 33.152 32.227C33.152 33.2031 32.3815 34 31.4232 34H10.0168C9.065 34 8.288 33.2098 8.288 32.227Z" fill="white"/>
</svg>
