<svg width="55" height="36" viewBox="0 0 55 36" fill="none" xmlns="http://www.w3.org/2000/svg">
<g clip-path="url(#clip0_165_123)">
<path d="M27.5 0C28.7445 0 29.75 1.00547 29.75 2.25V6.75H38.1875C40.9859 6.75 43.25 9.01406 43.25 11.8125V30.9375C43.25 33.7359 40.9859 36 38.1875 36H16.8125C14.0141 36 11.75 33.7359 11.75 30.9375V11.8125C11.75 9.01406 14.0141 6.75 16.8125 6.75H25.25V2.25C25.25 1.00547 26.2555 0 27.5 0ZM19.625 27C19.0063 27 18.5 27.5063 18.5 28.125C18.5 28.7437 19.0063 29.25 19.625 29.25H21.875C22.4937 29.25 23 28.7437 23 28.125C23 27.5063 22.4937 27 21.875 27H19.625ZM26.375 27C25.7563 27 25.25 27.5063 25.25 28.125C25.25 28.7437 25.7563 29.25 26.375 29.25H28.625C29.2437 29.25 29.75 28.7437 29.75 28.125C29.75 27.5063 29.2437 27 28.625 27H26.375ZM33.125 27C32.5063 27 32 27.5063 32 28.125C32 28.7437 32.5063 29.25 33.125 29.25H35.375C35.9937 29.25 36.5 28.7437 36.5 28.125C36.5 27.5063 35.9937 27 35.375 27H33.125ZM23.5625 18C23.5625 17.2541 23.2662 16.5387 22.7387 16.0113C22.2113 15.4838 21.4959 15.1875 20.75 15.1875C20.0041 15.1875 19.2887 15.4838 18.7613 16.0113C18.2338 16.5387 17.9375 17.2541 17.9375 18C17.9375 18.7459 18.2338 19.4613 18.7613 19.9887C19.2887 20.5162 20.0041 20.8125 20.75 20.8125C21.4959 20.8125 22.2113 20.5162 22.7387 19.9887C23.2662 19.4613 23.5625 18.7459 23.5625 18ZM34.25 20.8125C34.9959 20.8125 35.7113 20.5162 36.2387 19.9887C36.7662 19.4613 37.0625 18.7459 37.0625 18C37.0625 17.2541 36.7662 16.5387 36.2387 16.0113C35.7113 15.4838 34.9959 15.1875 34.25 15.1875C33.5041 15.1875 32.7887 15.4838 32.2613 16.0113C31.7338 16.5387 31.4375 17.2541 31.4375 18C31.4375 18.7459 31.7338 19.4613 32.2613 19.9887C32.7887 20.5162 33.5041 20.8125 34.25 20.8125ZM8.375 15.75H9.5V29.25H8.375C6.51172 29.25 5 27.7383 5 25.875V19.125C5 17.2617 6.51172 15.75 8.375 15.75ZM46.625 15.75C48.4883 15.75 50 17.2617 50 19.125V25.875C50 27.7383 48.4883 29.25 46.625 29.25H45.5V15.75H46.625Z" fill="#FE6F6F"/>
<g clip-path="url(#clip1_165_123)">
<g clip-path="url(#clip2_165_123)">
<path d="M5.35862 0.646782C5.93519 -0.084468 6.9969 -0.218062 7.72815 0.358501L49.3532 32.9835C50.0844 33.5601 50.218 34.6218 49.6414 35.353C49.0649 36.0843 48.0032 36.2179 47.2719 35.6413L5.6469 3.01631C4.91565 2.43975 4.78206 1.37803 5.35862 0.646782Z" fill="#FF5D5D"/>
</g>
</g>
</g>
<defs>
<clipPath id="clip0_165_123">
<path d="M5 0H50V36H5V0Z" fill="white"/>
</clipPath>
<clipPath id="clip1_165_123">
<rect width="45" height="36" fill="white" transform="translate(5)"/>
</clipPath>
<clipPath id="clip2_165_123">
<path d="M5 0H50V36H5V0Z" fill="white"/>
</clipPath>
</defs>
</svg>
