<svg width="37" height="36" viewBox="0 0 37 36" fill="none" xmlns="http://www.w3.org/2000/svg">
<path d="M11.3204 26.8086L9.0874 24.6963C8.47314 24.1153 8.25634 23.2745 8.53095 22.4952C8.74775 21.8868 9.03681 21.0938 9.38369 20.1846H1.73799C1.1165 20.1846 0.538376 19.8702 0.227634 19.3575C-0.0831086 18.8448 -0.0758821 18.2159 0.242087 17.71L4.03603 11.6602C4.97548 10.1631 6.67373 9.24711 8.50927 9.24711H14.4567C14.6302 8.97367 14.8036 8.72074 14.977 8.47465C20.8956 0.216835 29.712 -0.0566014 34.9729 0.859414C35.8112 1.00297 36.4616 1.62504 36.6206 2.41801C37.589 7.40141 37.2927 15.7344 28.5702 21.333C28.3173 21.4971 28.0427 21.6612 27.7536 21.8252V27.4512C27.7536 29.1875 26.7853 30.8008 25.2026 31.6827L18.8071 35.2715C18.2724 35.5723 17.6075 35.5791 17.0655 35.2852C16.5235 34.9912 16.1911 34.4512 16.1911 33.8565V26.5284C15.1722 26.8633 14.2833 27.1368 13.6112 27.3418C12.8019 27.5879 11.9202 27.376 11.3132 26.8086H11.3204ZM27.7536 11.9815C28.5203 11.9815 29.2555 11.6934 29.7976 11.1806C30.3397 10.6678 30.6442 9.97231 30.6442 9.24711C30.6442 8.52191 30.3397 7.82641 29.7976 7.31361C29.2555 6.80082 28.5203 6.51273 27.7536 6.51273C26.987 6.51273 26.2517 6.80082 25.7096 7.31361C25.1675 7.82641 24.863 8.52191 24.863 9.24711C24.863 9.97231 25.1675 10.6678 25.7096 11.1806C26.2517 11.6934 26.987 11.9815 27.7536 11.9815Z" fill="white"/>
</svg>
