<svg width="36" height="37" viewBox="0 0 36 37" fill="none" xmlns="http://www.w3.org/2000/svg">
<path d="M10.125 1.625C10.125 1.00625 9.61875 0.5 9 0.5C8.38125 0.5 7.875 1.00625 7.875 1.625V2.75H6.75C6.13125 2.75 5.625 3.25625 5.625 3.875C5.625 4.49375 6.13125 5 6.75 5H7.875V7.25H4.23281C3.45234 7.25 2.8125 7.88984 2.8125 8.67031C2.8125 8.84609 2.84766 9.01484 2.90391 9.18359L5.18906 15.125H5.0625C4.12734 15.125 3.375 15.8773 3.375 16.8125C3.375 17.7477 4.12734 18.5 5.0625 18.5H5.34375L4.21875 27.5H13.7812L12.6562 18.5H12.9375C13.8727 18.5 14.625 17.7477 14.625 16.8125C14.625 15.8773 13.8727 15.125 12.9375 15.125H12.8109L15.0961 9.18359C15.1594 9.02188 15.1875 8.84609 15.1875 8.67031C15.1875 7.88281 14.5477 7.25 13.7672 7.25H10.125V5H11.25C11.8687 5 12.375 4.49375 12.375 3.875C12.375 3.25625 11.8687 2.75 11.25 2.75H10.125V1.625ZM3.375 29.75L0.3375 33.8C0.119531 34.0953 0 34.4469 0 34.8125C0 35.7477 0.752344 36.5 1.6875 36.5H16.3125C17.2477 36.5 18 35.7477 18 34.8125C18 34.4469 17.8805 34.0953 17.6625 33.8L14.625 29.75H3.375ZM23.625 29.75L20.5875 33.8C20.3695 34.0953 20.25 34.4469 20.25 34.8125C20.25 35.7477 21.0023 36.5 21.9375 36.5H34.3125C35.2477 36.5 36 35.7477 36 34.8125C36 34.4469 35.8805 34.0953 35.6625 33.8L32.625 29.75H23.625ZM21.375 15.125V18.7742C21.375 19.3227 21.5719 19.85 21.9375 20.2578L23.85 22.4375L23.6953 27.5H32.5195L32.2875 22.4375L34.2773 20.2719C34.657 19.857 34.875 19.3156 34.875 18.7461V15.125C34.875 14.5063 34.3688 14 33.75 14H32.625C32.0062 14 31.5 14.5063 31.5 15.125V16.25H29.8125V15.125C29.8125 14.5063 29.3062 14 28.6875 14H27.5625C26.9438 14 26.4375 14.5063 26.4375 15.125V16.25H24.75V15.125C24.75 14.5063 24.2437 14 23.625 14H22.5C21.8813 14 21.375 14.5063 21.375 15.125ZM27 21.875C27 21.2563 27.5063 20.75 28.125 20.75C28.7437 20.75 29.25 21.2563 29.25 21.875V24.125H27V21.875Z" fill="#A0AAFF"/>
</svg>
