<svg width="36" height="33" viewBox="0 0 36 33" fill="none" xmlns="http://www.w3.org/2000/svg">
<path d="M4.5 3C4.5 1.75547 3.49453 0.75 2.25 0.75C1.00547 0.75 0 1.75547 0 3V26.625C0 29.7328 2.51719 32.25 5.625 32.25H33.75C34.9945 32.25 36 31.2445 36 30C36 28.7555 34.9945 27.75 33.75 27.75H5.625C5.00625 27.75 4.5 27.2437 4.5 26.625V3ZM33.0891 9.08906C33.968 8.21016 33.968 6.78281 33.0891 5.90391C32.2102 5.025 30.7828 5.025 29.9039 5.90391L22.5 13.3148L18.4641 9.27891C17.5852 8.4 16.1578 8.4 15.2789 9.27891L7.40391 17.1539C6.525 18.0328 6.525 19.4602 7.40391 20.3391C8.28281 21.218 9.71016 21.218 10.5891 20.3391L16.875 14.0602L20.9109 18.0961C21.7898 18.975 23.2172 18.975 24.0961 18.0961L33.0961 9.09609L33.0891 9.08906Z" fill="#A0AAFF"/>
</svg>
