<svg width="25" height="37" viewBox="0 0 25 37" fill="none" xmlns="http://www.w3.org/2000/svg">
<path d="M12.5 0.5C8.77344 0.5 5.75 3.52344 5.75 7.25V18.5C5.75 22.2266 8.77344 25.25 12.5 25.25C16.2266 25.25 19.25 22.2266 19.25 18.5V7.25C19.25 3.52344 16.2266 0.5 12.5 0.5ZM3.5 15.6875C3.5 14.7523 2.74766 14 1.8125 14C0.877344 14 0.125 14.7523 0.125 15.6875V18.5C0.125 24.7648 4.77969 29.9398 10.8125 30.7625V33.125H7.4375C6.50234 33.125 5.75 33.8773 5.75 34.8125C5.75 35.7477 6.50234 36.5 7.4375 36.5H12.5H17.5625C18.4977 36.5 19.25 35.7477 19.25 34.8125C19.25 33.8773 18.4977 33.125 17.5625 33.125H14.1875V30.7625C20.2203 29.9398 24.875 24.7648 24.875 18.5V15.6875C24.875 14.7523 24.1227 14 23.1875 14C22.2523 14 21.5 14.7523 21.5 15.6875V18.5C21.5 23.4711 17.4711 27.5 12.5 27.5C7.52891 27.5 3.5 23.4711 3.5 18.5V15.6875Z" fill="#A0AAFF"/>
</svg>
